<svg width="30" height="30" viewBox="0 0 30 30" fill="none" xmlns="http://www.w3.org/2000/svg">
<g clip-path="url(#clip0_2_4)">
<path d="M5.01176 14.8C5.06204 14.1735 5.34646 13.5889 5.80836 13.1627C6.27026 12.7365 6.87575 12.4999 7.50426 12.5H22.5768C23.2053 12.4999 23.8108 12.7365 24.2727 13.1627C24.7346 13.5889 25.019 14.1735 25.0693 14.8L26.073 27.3C26.1006 27.644 26.0567 27.99 25.9441 28.3162C25.8314 28.6424 25.6524 28.9417 25.4184 29.1953C25.1844 29.4489 24.9004 29.6514 24.5843 29.7899C24.2682 29.9283 23.9269 29.9999 23.5818 30H6.49926C6.15417 29.9999 5.81283 29.9283 5.49674 29.7899C5.18065 29.6514 4.89665 29.4489 4.66263 29.1953C4.42861 28.9417 4.24964 28.6424 4.13698 28.3162C4.02431 27.99 3.98041 27.644 4.00801 27.3L5.01176 14.8V14.8Z" stroke="white" stroke-width="2.5" stroke-linecap="round" stroke-linejoin="round"/>
<path d="M20.0405 16.25V10C20.0405 8.67392 19.5137 7.40215 18.5761 6.46447C17.6384 5.52678 16.3666 5 15.0405 5C13.7144 5 12.4427 5.52678 11.505 6.46447C10.5673 7.40215 10.0405 8.67392 10.0405 10V16.25" stroke="white" stroke-width="2.5" stroke-linecap="round" stroke-linejoin="round"/>
</g>
<defs>
<clipPath id="clip0_2_4">
<rect width="30" height="30" fill="white"/>
</clipPath>
</defs>
</svg>
