<svg width="35" height="35" viewBox="0 0 35 35" fill="none" xmlns="http://www.w3.org/2000/svg">
<path d="M5.84714 13.7667C5.9058 13.0358 6.23761 12.3538 6.7765 11.8565C7.31538 11.3592 8.0218 11.0832 8.75506 11.0833H26.3396C27.0729 11.0832 27.7793 11.3592 28.3182 11.8565C28.8571 12.3538 29.1889 13.0358 29.2476 13.7667L30.4186 28.35C30.4508 28.7513 30.3996 29.155 30.2681 29.5355C30.1367 29.9161 29.9279 30.2653 29.6549 30.5612C29.3819 30.8571 29.0505 31.0933 28.6818 31.2548C28.313 31.4164 27.9148 31.4999 27.5121 31.5H7.58255C7.17994 31.4999 6.78171 31.4164 6.41294 31.2548C6.04417 31.0933 5.71284 30.8571 5.43982 30.5612C5.1668 30.2653 4.95799 29.9161 4.82655 29.5355C4.69512 29.155 4.64389 28.7513 4.6761 28.35L5.84714 13.7667V13.7667Z" stroke="white" stroke-width="2.5" stroke-linecap="round" stroke-linejoin="round"/>
<path d="M23.3808 15.4583V8.16667C23.3808 6.61957 22.7662 5.13584 21.6722 4.04188C20.5783 2.94792 19.0945 2.33334 17.5474 2.33334C16.0003 2.33334 14.5166 2.94792 13.4227 4.04188C12.3287 5.13584 11.7141 6.61957 11.7141 8.16667V15.4583" stroke="white" stroke-width="2.5" stroke-linecap="round" stroke-linejoin="round"/>
</svg>
