<svg width="214" height="56" viewBox="0 0 214 56" fill="none" xmlns="http://www.w3.org/2000/svg">
<path d="M69.1434 23.96V19C67.4234 18.8 65.9034 18.88 64.5434 19.24C63.1834 19.64 62.0634 20.24 61.1434 21.04C60.1834 21.88 59.4634 22.88 58.9834 24.08C58.5034 25.28 58.2634 26.64 58.2634 28.08V40H63.5434V28.08C63.5434 26.64 64.0234 25.52 65.0634 24.72C66.1034 23.92 67.4634 23.68 69.1434 23.96ZM84.3334 35.64C83.6134 35.64 82.9734 35.52 82.3334 35.24C81.6934 34.96 81.1734 34.56 80.7334 34.04C80.2534 33.52 79.8934 32.88 79.6534 32.16C79.3734 31.44 79.2534 30.64 79.2534 29.76C79.2534 28.88 79.3734 28.08 79.6534 27.32C79.8934 26.6 80.2534 25.96 80.7334 25.4C81.1734 24.88 81.6934 24.48 82.3334 24.16C82.9734 23.88 83.6134 23.72 84.3334 23.72C85.0134 23.72 85.6534 23.88 86.2934 24.16C86.8934 24.48 87.4134 24.88 87.8934 25.4C88.3734 25.96 88.7334 26.6 89.0134 27.32C89.2534 28.08 89.4134 28.88 89.4134 29.76C89.4134 30.64 89.2534 31.44 89.0134 32.16C88.7334 32.88 88.3734 33.52 87.8934 34.04C87.4134 34.56 86.8934 34.96 86.2934 35.24C85.6534 35.52 85.0134 35.64 84.3334 35.64ZM84.3334 18.88C82.8934 18.88 81.5334 19.16 80.2934 19.72C79.0134 20.28 77.9334 21.04 77.0134 22C76.0534 22.96 75.3334 24.12 74.7734 25.44C74.2134 26.76 73.9734 28.2 73.9734 29.72C73.9734 31.28 74.2134 32.72 74.7734 34C75.3334 35.32 76.0534 36.44 77.0134 37.4C77.9334 38.36 79.0134 39.12 80.2934 39.68C81.5334 40.24 82.8934 40.48 84.3334 40.48C85.7734 40.48 87.0934 40.24 88.3734 39.68C89.6134 39.12 90.6934 38.36 91.6534 37.4C92.6134 36.44 93.3334 35.32 93.8934 34C94.4534 32.72 94.7334 31.28 94.7334 29.72C94.7334 28.2 94.4534 26.76 93.8934 25.44C93.3334 24.12 92.6134 22.96 91.6534 22C90.6934 21.04 89.6134 20.28 88.3734 19.72C87.0934 19.16 85.7734 18.88 84.3334 18.88ZM119.618 31.28V19.4H114.338V31.44C114.338 32.6 113.938 33.56 113.218 34.28C112.458 35 111.498 35.36 110.338 35.36C109.458 35.36 108.738 35.24 108.258 34.92C107.738 34.64 107.338 34.28 107.098 33.84C106.818 33.44 106.658 33 106.578 32.56C106.498 32.12 106.458 31.76 106.458 31.44V19.4H101.178V31.28C101.178 32.64 101.378 33.88 101.778 35C102.178 36.12 102.778 37.12 103.578 37.92C104.378 38.72 105.338 39.36 106.458 39.8C107.578 40.28 108.898 40.48 110.338 40.48C111.698 40.48 112.978 40.28 114.138 39.8C115.258 39.32 116.258 38.68 117.058 37.84C117.858 37.04 118.498 36.04 118.938 34.92C119.378 33.8 119.618 32.6 119.618 31.28ZM144.667 33.52C144.667 32.4 144.427 31.48 143.987 30.76C143.547 30.04 142.947 29.44 142.187 28.96C141.387 28.48 140.467 28.12 139.387 27.84C138.307 27.56 137.147 27.32 135.867 27.08C134.587 26.88 133.587 26.64 132.867 26.4C132.147 26.16 131.787 25.8 131.787 25.24C131.787 24.88 132.027 24.52 132.587 24.16C133.107 23.8 133.987 23.6 135.227 23.6C136.187 23.6 136.987 23.8 137.547 24.12C138.107 24.44 138.507 24.84 138.667 25.32H144.147C143.987 24.36 143.627 23.48 143.147 22.68C142.627 21.88 141.987 21.2 141.187 20.64C140.387 20.08 139.507 19.68 138.507 19.36C137.467 19.04 136.387 18.88 135.227 18.88C133.707 18.88 132.427 19.08 131.307 19.48C130.187 19.88 129.307 20.36 128.587 20.96C127.867 21.6 127.307 22.28 126.947 23.08C126.587 23.88 126.427 24.68 126.427 25.48C126.427 26.64 126.667 27.6 127.227 28.32C127.787 29.04 128.467 29.64 129.347 30.08C130.187 30.56 131.107 30.88 132.107 31.12C133.107 31.36 134.067 31.52 135.027 31.64C135.907 31.8 136.667 31.92 137.227 32.08C137.787 32.24 138.227 32.36 138.547 32.52C138.867 32.68 139.067 32.88 139.187 33.08C139.267 33.32 139.347 33.56 139.347 33.84C139.347 34.48 138.987 34.92 138.267 35.24C137.547 35.56 136.667 35.68 135.627 35.68C135.227 35.68 134.787 35.64 134.347 35.56C133.907 35.48 133.507 35.36 133.107 35.16C132.707 34.96 132.307 34.72 131.987 34.4C131.667 34.12 131.387 33.76 131.227 33.28H125.867C126.027 34.4 126.347 35.4 126.907 36.28C127.467 37.16 128.147 37.92 129.027 38.56C129.867 39.2 130.867 39.68 131.987 40C133.107 40.32 134.307 40.48 135.627 40.48C136.907 40.48 138.107 40.32 139.227 39.96C140.347 39.64 141.307 39.16 142.107 38.52C142.907 37.92 143.507 37.2 143.987 36.32C144.427 35.48 144.667 34.56 144.667 33.52ZM165.802 29.68C166.922 29.12 167.802 28.32 168.402 27.24C169.002 26.2 169.322 24.96 169.322 23.6V19.4H164.002V22.68C164.002 23.24 163.922 23.8 163.762 24.36C163.602 24.92 163.322 25.4 162.962 25.8C162.602 26.2 162.162 26.56 161.602 26.8C161.042 27.04 160.362 27.16 159.562 27.16H156.642V10.24H151.322V40H156.642V32.24H159.562C160.362 32.24 161.042 32.4 161.602 32.64C162.162 32.88 162.602 33.24 162.962 33.64C163.322 34.04 163.602 34.52 163.762 35.04C163.922 35.6 164.002 36.12 164.002 36.68V40H169.322V35.8C169.322 34.44 169.002 33.24 168.402 32.16C167.802 31.12 166.922 30.28 165.802 29.68ZM182.301 40V19.4H177.021V40H182.301ZM176.981 17.16H182.301V14.2C182.301 13.48 182.021 12.84 181.501 12.32C180.981 11.84 180.381 11.56 179.661 11.56C178.901 11.56 178.261 11.84 177.741 12.32C177.221 12.84 176.981 13.48 176.981 14.2V17.16ZM203.613 25.36L193.933 29.44C193.933 28.56 194.093 27.76 194.413 27.04C194.733 26.32 195.133 25.72 195.613 25.2C196.093 24.68 196.693 24.28 197.373 23.96C198.013 23.68 198.733 23.52 199.533 23.52C200.373 23.52 201.133 23.68 201.853 24C202.533 24.32 203.133 24.8 203.613 25.36ZM209.533 33.44H203.893C203.413 34.28 202.813 34.88 202.013 35.28C201.213 35.68 200.373 35.84 199.533 35.84C198.613 35.84 197.773 35.68 197.053 35.28C196.293 34.88 195.653 34.36 195.133 33.64L209.693 27.52C209.453 26.16 209.013 24.92 208.372 23.84C207.733 22.8 206.973 21.88 206.093 21.16C205.213 20.44 204.213 19.88 203.093 19.48C201.973 19.08 200.773 18.88 199.572 18.88C198.092 18.88 196.733 19.2 195.453 19.76C194.173 20.32 193.053 21.12 192.093 22.08C191.133 23.04 190.373 24.2 189.813 25.52C189.253 26.84 189.013 28.24 189.013 29.72C189.013 31.24 189.253 32.64 189.813 33.92C190.373 35.24 191.133 36.4 192.093 37.36C193.053 38.32 194.173 39.08 195.453 39.64C196.733 40.2 198.092 40.48 199.572 40.48C202.133 40.48 204.293 39.84 206.013 38.56C207.733 37.28 208.893 35.56 209.533 33.44Z" fill="#E10512"/>
<g clip-path="url(#clip0_1_292)">
<path fill-rule="evenodd" clip-rule="evenodd" d="M47.8451 27.2795C46.8368 26.9013 45.9694 25.9744 45.2246 24.602C44.981 24.1254 44.4406 23.8552 43.8966 23.9707C41.5949 24.4749 39.5547 24.312 37.9256 23.6265C36.9217 23.2026 36.075 22.584 35.4205 21.7993C34.7656 21.0188 34.3033 20.068 34.0637 18.9834C33.6698 17.1916 33.8942 15.0356 34.8907 12.6603L34.8865 12.6599C35.1358 12.0755 34.8823 11.3965 34.3053 11.1144C33.2191 10.586 32.5455 9.69462 32.2772 8.60306C31.9819 7.39981 32.1564 5.93552 32.7953 4.39846C32.8713 4.26312 32.9198 4.10834 32.9358 3.94205C32.9998 3.2769 32.5152 2.68898 31.85 2.62494C24.9146 1.62147 18.1228 3.5269 12.8095 7.42083C7.50107 11.3068 3.65905 17.176 2.61481 24.0991C2.60169 24.1482 2.59233 24.2019 2.58713 24.2559C1.58366 31.1914 3.47376 37.881 7.3557 43.1009C11.226 48.3113 17.0719 52.0461 23.9863 53.0937C24.0354 53.1069 24.089 53.1162 24.1431 53.1214L24.1435 53.1173C31.0789 54.1207 37.7689 52.2265 42.9884 48.3487C48.1988 44.4784 51.9337 38.6325 52.9813 31.7181C52.9944 31.669 53.0037 31.6153 53.0089 31.5613C53.0957 30.9655 53.1579 30.3631 53.2039 29.7549C53.249 29.1551 53.2726 28.5616 53.2746 27.9743C53.2909 27.7619 53.2527 27.5485 53.1547 27.346C52.8641 26.7474 52.1413 26.4974 51.5423 26.7922C50.0543 27.5174 48.8372 27.652 47.8451 27.2795ZM54.5369 19.8764C54.6161 19.0533 54.015 18.3241 53.1919 18.2448C52.3688 18.1655 51.635 18.7704 51.5603 19.5898C51.4811 20.4129 52.0822 21.1421 52.9053 21.2214C53.7284 21.3006 54.4576 20.6995 54.5369 19.8764ZM44.921 15.7282C45.0403 14.4893 44.1349 13.3909 42.8961 13.2717C41.6572 13.1524 40.5585 14.0619 40.4396 15.2966C40.3203 16.5355 41.2257 17.6338 42.4645 17.7531C43.7034 17.8724 44.8018 16.967 44.921 15.7282ZM47.6946 6.79392C47.8223 5.46777 46.8492 4.28737 45.5231 4.15968C44.1969 4.03198 43.0211 5.00127 42.8888 6.33118C42.7611 7.65733 43.7342 8.83772 45.0603 8.96542C46.3865 9.09311 47.5669 8.12007 47.6946 6.79392ZM18.9999 37.5C19.1108 36.3485 18.2692 35.3276 17.1177 35.2167C15.9703 35.1062 14.9452 35.9474 14.8344 37.0989C14.7235 38.2505 15.565 39.2713 16.7166 39.3822C17.8681 39.4931 18.889 38.6515 18.9999 37.5ZM27.2212 26.4265C28.3727 26.5374 29.2143 27.5583 29.1034 28.7098C28.9925 29.8614 27.9716 30.7029 26.8201 30.592C25.6685 30.4811 24.827 29.4603 24.9379 28.3087C25.0488 27.1572 26.0738 26.316 27.2212 26.4265ZM19.5732 24.3083C19.7653 22.3128 18.3039 20.5399 16.3084 20.3478C14.313 20.1557 12.5397 21.6213 12.3479 23.6126C12.1558 25.608 13.6172 27.3809 15.6127 27.573C17.6082 27.7652 19.381 26.3037 19.5732 24.3083ZM24.7079 15.2294C25.8095 15.3355 26.6135 16.3108 26.5074 17.4124C26.4013 18.5141 25.426 19.3181 24.3244 19.212C23.2227 19.1059 22.4187 18.1306 22.5248 17.029C22.6309 15.9273 23.6104 15.1237 24.7079 15.2294ZM36.5809 40.2507C36.7586 38.4048 35.4057 36.7683 33.5641 36.591C31.7183 36.4132 30.0821 37.762 29.9044 39.6078C29.7267 41.4536 31.0754 43.0897 32.9212 43.2675C34.767 43.4452 36.4035 42.0923 36.5809 40.2507Z" fill="#E10512"/>
</g>
<defs>
<clipPath id="clip0_1_292">
<rect width="51.32" height="51.057" fill="white" transform="translate(4.89355) rotate(5.5)"/>
</clipPath>
</defs>
</svg>
