<svg width="232" height="56" viewBox="0 0 232 56" fill="none" xmlns="http://www.w3.org/2000/svg">
<path d="M72.6347 26.96V22C70.9147 21.8 69.3947 21.88 68.0347 22.24C66.6747 22.64 65.5547 23.24 64.6347 24.04C63.6747 24.88 62.9547 25.88 62.4747 27.08C61.9947 28.28 61.7547 29.64 61.7547 31.08V43H67.0347V31.08C67.0347 29.64 67.5147 28.52 68.5547 27.72C69.5947 26.92 70.9547 26.68 72.6347 26.96ZM87.8247 38.64C87.1047 38.64 86.4647 38.52 85.8247 38.24C85.1847 37.96 84.6647 37.56 84.2247 37.04C83.7447 36.52 83.3847 35.88 83.1447 35.16C82.8647 34.44 82.7447 33.64 82.7447 32.76C82.7447 31.88 82.8647 31.08 83.1447 30.32C83.3847 29.6 83.7447 28.96 84.2247 28.4C84.6647 27.88 85.1847 27.48 85.8247 27.16C86.4647 26.88 87.1047 26.72 87.8247 26.72C88.5047 26.72 89.1447 26.88 89.7847 27.16C90.3847 27.48 90.9047 27.88 91.3847 28.4C91.8647 28.96 92.2247 29.6 92.5047 30.32C92.7447 31.08 92.9047 31.88 92.9047 32.76C92.9047 33.64 92.7447 34.44 92.5047 35.16C92.2247 35.88 91.8647 36.52 91.3847 37.04C90.9047 37.56 90.3847 37.96 89.7847 38.24C89.1447 38.52 88.5047 38.64 87.8247 38.64ZM87.8247 21.88C86.3847 21.88 85.0247 22.16 83.7847 22.72C82.5047 23.28 81.4247 24.04 80.5047 25C79.5447 25.96 78.8247 27.12 78.2647 28.44C77.7047 29.76 77.4647 31.2 77.4647 32.72C77.4647 34.28 77.7047 35.72 78.2647 37C78.8247 38.32 79.5447 39.44 80.5047 40.4C81.4247 41.36 82.5047 42.12 83.7847 42.68C85.0247 43.24 86.3847 43.48 87.8247 43.48C89.2647 43.48 90.5847 43.24 91.8647 42.68C93.1047 42.12 94.1847 41.36 95.1447 40.4C96.1047 39.44 96.8247 38.32 97.3847 37C97.9447 35.72 98.2247 34.28 98.2247 32.72C98.2247 31.2 97.9447 29.76 97.3847 28.44C96.8247 27.12 96.1047 25.96 95.1447 25C94.1847 24.04 93.1047 23.28 91.8647 22.72C90.5847 22.16 89.2647 21.88 87.8247 21.88ZM123.109 34.28V22.4H117.829V34.44C117.829 35.6 117.429 36.56 116.709 37.28C115.949 38 114.989 38.36 113.829 38.36C112.949 38.36 112.229 38.24 111.749 37.92C111.229 37.64 110.829 37.28 110.589 36.84C110.309 36.44 110.149 36 110.069 35.56C109.989 35.12 109.949 34.76 109.949 34.44V22.4H104.669V34.28C104.669 35.64 104.869 36.88 105.269 38C105.669 39.12 106.269 40.12 107.069 40.92C107.869 41.72 108.829 42.36 109.949 42.8C111.069 43.28 112.389 43.48 113.829 43.48C115.189 43.48 116.469 43.28 117.629 42.8C118.749 42.32 119.749 41.68 120.549 40.84C121.349 40.04 121.989 39.04 122.429 37.92C122.869 36.8 123.109 35.6 123.109 34.28ZM148.158 36.52C148.158 35.4 147.918 34.48 147.478 33.76C147.038 33.04 146.438 32.44 145.678 31.96C144.878 31.48 143.958 31.12 142.878 30.84C141.798 30.56 140.638 30.32 139.358 30.08C138.078 29.88 137.078 29.64 136.358 29.4C135.638 29.16 135.278 28.8 135.278 28.24C135.278 27.88 135.518 27.52 136.078 27.16C136.598 26.8 137.478 26.6 138.718 26.6C139.678 26.6 140.478 26.8 141.038 27.12C141.598 27.44 141.998 27.84 142.158 28.32H147.638C147.478 27.36 147.118 26.48 146.638 25.68C146.118 24.88 145.478 24.2 144.678 23.64C143.878 23.08 142.998 22.68 141.998 22.36C140.958 22.04 139.878 21.88 138.718 21.88C137.198 21.88 135.918 22.08 134.798 22.48C133.678 22.88 132.798 23.36 132.078 23.96C131.358 24.6 130.798 25.28 130.438 26.08C130.078 26.88 129.918 27.68 129.918 28.48C129.918 29.64 130.158 30.6 130.718 31.32C131.278 32.04 131.958 32.64 132.838 33.08C133.678 33.56 134.598 33.88 135.598 34.12C136.598 34.36 137.558 34.52 138.518 34.64C139.398 34.8 140.158 34.92 140.718 35.08C141.278 35.24 141.718 35.36 142.038 35.52C142.358 35.68 142.558 35.88 142.678 36.08C142.758 36.32 142.838 36.56 142.838 36.84C142.838 37.48 142.478 37.92 141.758 38.24C141.038 38.56 140.158 38.68 139.118 38.68C138.718 38.68 138.278 38.64 137.838 38.56C137.398 38.48 136.998 38.36 136.598 38.16C136.198 37.96 135.798 37.72 135.478 37.4C135.158 37.12 134.878 36.76 134.718 36.28H129.358C129.518 37.4 129.838 38.4 130.398 39.28C130.958 40.16 131.638 40.92 132.518 41.56C133.358 42.2 134.358 42.68 135.478 43C136.598 43.32 137.798 43.48 139.118 43.48C140.398 43.48 141.598 43.32 142.718 42.96C143.838 42.64 144.798 42.16 145.598 41.52C146.398 40.92 146.998 40.2 147.478 39.32C147.918 38.48 148.158 37.56 148.158 36.52ZM169.293 32.68C170.413 32.12 171.293 31.32 171.893 30.24C172.493 29.2 172.813 27.96 172.813 26.6V22.4H167.493V25.68C167.493 26.24 167.413 26.8 167.253 27.36C167.093 27.92 166.813 28.4 166.453 28.8C166.093 29.2 165.653 29.56 165.093 29.8C164.533 30.04 163.853 30.16 163.053 30.16H160.133V13.24H154.813V43H160.133V35.24H163.053C163.853 35.24 164.533 35.4 165.093 35.64C165.653 35.88 166.093 36.24 166.453 36.64C166.813 37.04 167.093 37.52 167.253 38.04C167.413 38.6 167.493 39.12 167.493 39.68V43H172.813V38.8C172.813 37.44 172.493 36.24 171.893 35.16C171.293 34.12 170.413 33.28 169.293 32.68ZM185.792 43V22.4H180.512V43H185.792ZM180.472 20.16H185.792V17.2C185.792 16.48 185.512 15.84 184.992 15.32C184.472 14.84 183.872 14.56 183.152 14.56C182.392 14.56 181.752 14.84 181.232 15.32C180.712 15.84 180.472 16.48 180.472 17.2V20.16ZM207.104 28.36L197.424 32.44C197.424 31.56 197.584 30.76 197.904 30.04C198.224 29.32 198.624 28.72 199.104 28.2C199.584 27.68 200.184 27.28 200.864 26.96C201.504 26.68 202.224 26.52 203.024 26.52C203.864 26.52 204.624 26.68 205.344 27C206.024 27.32 206.624 27.8 207.104 28.36ZM213.024 36.44H207.384C206.904 37.28 206.304 37.88 205.504 38.28C204.704 38.68 203.864 38.84 203.024 38.84C202.104 38.84 201.264 38.68 200.544 38.28C199.784 37.88 199.144 37.36 198.624 36.64L213.184 30.52C212.944 29.16 212.504 27.92 211.864 26.84C211.224 25.8 210.464 24.88 209.584 24.16C208.704 23.44 207.704 22.88 206.584 22.48C205.464 22.08 204.264 21.88 203.064 21.88C201.584 21.88 200.224 22.2 198.944 22.76C197.664 23.32 196.544 24.12 195.584 25.08C194.624 26.04 193.864 27.2 193.304 28.52C192.744 29.84 192.504 31.24 192.504 32.72C192.504 34.24 192.744 35.64 193.304 36.92C193.864 38.24 194.624 39.4 195.584 40.36C196.544 41.32 197.664 42.08 198.944 42.64C200.224 43.2 201.584 43.48 203.064 43.48C205.624 43.48 207.784 42.84 209.504 41.56C211.224 40.28 212.384 38.56 213.024 36.44Z" fill="white"/>
<g clip-path="url(#clip0_1_316)">
<path fill-rule="evenodd" clip-rule="evenodd" d="M47.8451 27.2795C46.8368 26.9013 45.9694 25.9744 45.2246 24.602C44.981 24.1254 44.4406 23.8552 43.8966 23.9707C41.5949 24.4749 39.5547 24.312 37.9256 23.6265C36.9217 23.2026 36.075 22.584 35.4205 21.7993C34.7656 21.0188 34.3033 20.068 34.0637 18.9834C33.6698 17.1916 33.8942 15.0356 34.8907 12.6603L34.8865 12.6599C35.1358 12.0755 34.8823 11.3965 34.3053 11.1144C33.2191 10.586 32.5455 9.69462 32.2772 8.60306C31.9819 7.39981 32.1564 5.93552 32.7953 4.39846C32.8713 4.26312 32.9198 4.10834 32.9358 3.94205C32.9998 3.2769 32.5152 2.68898 31.85 2.62494C24.9146 1.62147 18.1228 3.5269 12.8095 7.42083C7.50107 11.3068 3.65905 17.176 2.61481 24.0991C2.60169 24.1482 2.59233 24.2019 2.58713 24.2559C1.58366 31.1914 3.47376 37.881 7.3557 43.1009C11.226 48.3113 17.0719 52.0461 23.9863 53.0937C24.0354 53.1069 24.089 53.1162 24.1431 53.1214L24.1435 53.1173C31.0789 54.1207 37.7689 52.2265 42.9884 48.3487C48.1988 44.4784 51.9337 38.6325 52.9813 31.7181C52.9944 31.669 53.0037 31.6153 53.0089 31.5613C53.0957 30.9655 53.1579 30.3631 53.2039 29.7549C53.249 29.1551 53.2726 28.5616 53.2746 27.9743C53.2909 27.7619 53.2527 27.5485 53.1547 27.346C52.8641 26.7474 52.1413 26.4974 51.5423 26.7922C50.0543 27.5174 48.8372 27.652 47.8451 27.2795ZM54.5369 19.8764C54.6161 19.0533 54.015 18.3241 53.1919 18.2448C52.3688 18.1655 51.635 18.7704 51.5603 19.5898C51.4811 20.4129 52.0822 21.1421 52.9053 21.2214C53.7284 21.3006 54.4576 20.6995 54.5369 19.8764ZM44.921 15.7282C45.0403 14.4893 44.1349 13.3909 42.8961 13.2717C41.6572 13.1524 40.5585 14.0619 40.4396 15.2966C40.3203 16.5355 41.2257 17.6338 42.4645 17.7531C43.7034 17.8724 44.8018 16.967 44.921 15.7282ZM47.6946 6.79392C47.8223 5.46777 46.8492 4.28737 45.5231 4.15968C44.1969 4.03198 43.0211 5.00127 42.8888 6.33118C42.7611 7.65733 43.7342 8.83772 45.0603 8.96542C46.3865 9.09311 47.5669 8.12007 47.6946 6.79392ZM18.9999 37.5C19.1108 36.3485 18.2692 35.3276 17.1177 35.2167C15.9703 35.1062 14.9452 35.9474 14.8344 37.0989C14.7235 38.2505 15.565 39.2713 16.7166 39.3822C17.8681 39.4931 18.889 38.6515 18.9999 37.5ZM27.2212 26.4265C28.3727 26.5374 29.2143 27.5583 29.1034 28.7098C28.9925 29.8614 27.9716 30.7029 26.8201 30.592C25.6685 30.4811 24.827 29.4603 24.9379 28.3087C25.0488 27.1572 26.0738 26.316 27.2212 26.4265ZM19.5732 24.3083C19.7653 22.3128 18.3039 20.5399 16.3084 20.3478C14.313 20.1557 12.5397 21.6213 12.3479 23.6126C12.1558 25.608 13.6172 27.3809 15.6127 27.573C17.6082 27.7652 19.381 26.3037 19.5732 24.3083ZM24.7079 15.2294C25.8095 15.3355 26.6135 16.3108 26.5074 17.4124C26.4013 18.5141 25.426 19.3181 24.3244 19.212C23.2227 19.1059 22.4187 18.1306 22.5248 17.029C22.6309 15.9273 23.6104 15.1237 24.7079 15.2294ZM36.5809 40.2507C36.7586 38.4048 35.4057 36.7683 33.5641 36.591C31.7183 36.4132 30.0821 37.762 29.9044 39.6078C29.7267 41.4536 31.0754 43.0897 32.9212 43.2675C34.767 43.4452 36.4035 42.0923 36.5809 40.2507Z" fill="white"/>
</g>
<defs>
<clipPath id="clip0_1_316">
<rect width="51.32" height="51.057" fill="white" transform="translate(4.89355) rotate(5.5)"/>
</clipPath>
</defs>
</svg>
