<svg width="228" height="56" viewBox="0 0 228 56" fill="none" xmlns="http://www.w3.org/2000/svg">
<path d="M68.6347 26.96V22C66.9147 21.8 65.3947 21.88 64.0347 22.24C62.6747 22.64 61.5547 23.24 60.6347 24.04C59.6747 24.88 58.9547 25.88 58.4747 27.08C57.9947 28.28 57.7547 29.64 57.7547 31.08V43H63.0347V31.08C63.0347 29.64 63.5147 28.52 64.5547 27.72C65.5947 26.92 66.9547 26.68 68.6347 26.96ZM83.8247 38.64C83.1047 38.64 82.4647 38.52 81.8247 38.24C81.1847 37.96 80.6647 37.56 80.2247 37.04C79.7447 36.52 79.3847 35.88 79.1447 35.16C78.8647 34.44 78.7447 33.64 78.7447 32.76C78.7447 31.88 78.8647 31.08 79.1447 30.32C79.3847 29.6 79.7447 28.96 80.2247 28.4C80.6647 27.88 81.1847 27.48 81.8247 27.16C82.4647 26.88 83.1047 26.72 83.8247 26.72C84.5047 26.72 85.1447 26.88 85.7847 27.16C86.3847 27.48 86.9047 27.88 87.3847 28.4C87.8647 28.96 88.2247 29.6 88.5047 30.32C88.7447 31.08 88.9047 31.88 88.9047 32.76C88.9047 33.64 88.7447 34.44 88.5047 35.16C88.2247 35.88 87.8647 36.52 87.3847 37.04C86.9047 37.56 86.3847 37.96 85.7847 38.24C85.1447 38.52 84.5047 38.64 83.8247 38.64ZM83.8247 21.88C82.3847 21.88 81.0247 22.16 79.7847 22.72C78.5047 23.28 77.4247 24.04 76.5047 25C75.5447 25.96 74.8247 27.12 74.2647 28.44C73.7047 29.76 73.4647 31.2 73.4647 32.72C73.4647 34.28 73.7047 35.72 74.2647 37C74.8247 38.32 75.5447 39.44 76.5047 40.4C77.4247 41.36 78.5047 42.12 79.7847 42.68C81.0247 43.24 82.3847 43.48 83.8247 43.48C85.2647 43.48 86.5847 43.24 87.8647 42.68C89.1047 42.12 90.1847 41.36 91.1447 40.4C92.1047 39.44 92.8247 38.32 93.3847 37C93.9447 35.72 94.2247 34.28 94.2247 32.72C94.2247 31.2 93.9447 29.76 93.3847 28.44C92.8247 27.12 92.1047 25.96 91.1447 25C90.1847 24.04 89.1047 23.28 87.8647 22.72C86.5847 22.16 85.2647 21.88 83.8247 21.88ZM119.109 34.28V22.4H113.829V34.44C113.829 35.6 113.429 36.56 112.709 37.28C111.949 38 110.989 38.36 109.829 38.36C108.949 38.36 108.229 38.24 107.749 37.92C107.229 37.64 106.829 37.28 106.589 36.84C106.309 36.44 106.149 36 106.069 35.56C105.989 35.12 105.949 34.76 105.949 34.44V22.4H100.669V34.28C100.669 35.64 100.869 36.88 101.269 38C101.669 39.12 102.269 40.12 103.069 40.92C103.869 41.72 104.829 42.36 105.949 42.8C107.069 43.28 108.389 43.48 109.829 43.48C111.189 43.48 112.469 43.28 113.629 42.8C114.749 42.32 115.749 41.68 116.549 40.84C117.349 40.04 117.989 39.04 118.429 37.92C118.869 36.8 119.109 35.6 119.109 34.28ZM144.158 36.52C144.158 35.4 143.918 34.48 143.478 33.76C143.038 33.04 142.438 32.44 141.678 31.96C140.878 31.48 139.958 31.12 138.878 30.84C137.798 30.56 136.638 30.32 135.358 30.08C134.078 29.88 133.078 29.64 132.358 29.4C131.638 29.16 131.278 28.8 131.278 28.24C131.278 27.88 131.518 27.52 132.078 27.16C132.598 26.8 133.478 26.6 134.718 26.6C135.678 26.6 136.478 26.8 137.038 27.12C137.598 27.44 137.998 27.84 138.158 28.32H143.638C143.478 27.36 143.118 26.48 142.638 25.68C142.118 24.88 141.478 24.2 140.678 23.64C139.878 23.08 138.998 22.68 137.998 22.36C136.958 22.04 135.878 21.88 134.718 21.88C133.198 21.88 131.918 22.08 130.798 22.48C129.678 22.88 128.798 23.36 128.078 23.96C127.358 24.6 126.798 25.28 126.438 26.08C126.078 26.88 125.918 27.68 125.918 28.48C125.918 29.64 126.158 30.6 126.718 31.32C127.278 32.04 127.958 32.64 128.838 33.08C129.678 33.56 130.598 33.88 131.598 34.12C132.598 34.36 133.558 34.52 134.518 34.64C135.398 34.8 136.158 34.92 136.718 35.08C137.278 35.24 137.718 35.36 138.038 35.52C138.358 35.68 138.558 35.88 138.678 36.08C138.758 36.32 138.838 36.56 138.838 36.84C138.838 37.48 138.478 37.92 137.758 38.24C137.038 38.56 136.158 38.68 135.118 38.68C134.718 38.68 134.278 38.64 133.838 38.56C133.398 38.48 132.998 38.36 132.598 38.16C132.198 37.96 131.798 37.72 131.478 37.4C131.158 37.12 130.878 36.76 130.718 36.28H125.358C125.518 37.4 125.838 38.4 126.398 39.28C126.958 40.16 127.638 40.92 128.518 41.56C129.358 42.2 130.358 42.68 131.478 43C132.598 43.32 133.798 43.48 135.118 43.48C136.398 43.48 137.598 43.32 138.718 42.96C139.838 42.64 140.798 42.16 141.598 41.52C142.398 40.92 142.998 40.2 143.478 39.32C143.918 38.48 144.158 37.56 144.158 36.52ZM165.293 32.68C166.413 32.12 167.293 31.32 167.893 30.24C168.493 29.2 168.813 27.96 168.813 26.6V22.4H163.493V25.68C163.493 26.24 163.413 26.8 163.253 27.36C163.093 27.92 162.813 28.4 162.453 28.8C162.093 29.2 161.653 29.56 161.093 29.8C160.533 30.04 159.853 30.16 159.053 30.16H156.133V13.24H150.813V43H156.133V35.24H159.053C159.853 35.24 160.533 35.4 161.093 35.64C161.653 35.88 162.093 36.24 162.453 36.64C162.813 37.04 163.093 37.52 163.253 38.04C163.413 38.6 163.493 39.12 163.493 39.68V43H168.813V38.8C168.813 37.44 168.493 36.24 167.893 35.16C167.293 34.12 166.413 33.28 165.293 32.68ZM181.792 43V22.4H176.512V43H181.792ZM176.472 20.16H181.792V17.2C181.792 16.48 181.512 15.84 180.992 15.32C180.472 14.84 179.872 14.56 179.152 14.56C178.392 14.56 177.752 14.84 177.232 15.32C176.712 15.84 176.472 16.48 176.472 17.2V20.16ZM203.104 28.36L193.424 32.44C193.424 31.56 193.584 30.76 193.904 30.04C194.224 29.32 194.624 28.72 195.104 28.2C195.584 27.68 196.184 27.28 196.864 26.96C197.504 26.68 198.224 26.52 199.024 26.52C199.864 26.52 200.624 26.68 201.344 27C202.024 27.32 202.624 27.8 203.104 28.36ZM209.024 36.44H203.384C202.904 37.28 202.304 37.88 201.504 38.28C200.704 38.68 199.864 38.84 199.024 38.84C198.104 38.84 197.264 38.68 196.544 38.28C195.784 37.88 195.144 37.36 194.624 36.64L209.184 30.52C208.944 29.16 208.504 27.92 207.864 26.84C207.224 25.8 206.464 24.88 205.584 24.16C204.704 23.44 203.704 22.88 202.584 22.48C201.464 22.08 200.264 21.88 199.064 21.88C197.584 21.88 196.224 22.2 194.944 22.76C193.664 23.32 192.544 24.12 191.584 25.08C190.624 26.04 189.864 27.2 189.304 28.52C188.744 29.84 188.504 31.24 188.504 32.72C188.504 34.24 188.744 35.64 189.304 36.92C189.864 38.24 190.624 39.4 191.584 40.36C192.544 41.32 193.664 42.08 194.944 42.64C196.224 43.2 197.584 43.48 199.064 43.48C201.624 43.48 203.784 42.84 205.504 41.56C207.224 40.28 208.384 38.56 209.024 36.44Z" fill="#E10512"/>
<g clip-path="url(#clip0_1_202)">
<path d="M45.2247 24.6021C45.9695 25.9745 46.8369 26.9013 47.8452 27.2795C48.8373 27.652 50.0544 27.5174 51.5424 26.7922C52.1414 26.4974 52.8642 26.7474 53.1548 27.346C53.2528 27.5485 53.291 27.7619 53.2747 27.9744C53.2727 28.5616 53.2492 29.1551 53.204 29.7549C53.158 30.3631 53.0958 30.9655 53.0091 31.5613C53.0039 31.6154 52.9945 31.669 52.9814 31.7181C51.9338 38.6325 48.1989 44.4784 42.9885 48.3487C37.7691 52.2265 31.079 54.1208 24.1436 53.1173L24.1432 53.1215C24.0891 53.1162 24.0355 53.1069 23.9864 53.0938C17.072 52.0462 11.2261 48.3113 7.35582 43.1009C3.47388 37.881 1.58378 31.1914 2.58725 24.2559C2.59245 24.2019 2.60181 24.1483 2.61493 24.0992C3.65917 17.176 7.50119 11.3069 12.8096 7.42086C18.1229 3.52693 24.9147 1.6215 31.8502 2.62497C32.5153 2.68901 33 3.27693 32.9359 3.94209C32.9199 4.10837 32.8714 4.26315 32.7955 4.39849C32.1566 5.93555 31.982 7.39984 32.2773 8.60309C32.5456 9.69465 33.2192 10.5861 34.3054 11.1144C34.8824 11.3966 35.1359 12.0755 34.8867 12.6599L34.8908 12.6603C33.8943 15.0356 33.6699 17.1916 34.0638 18.9834C34.3034 20.068 34.7657 21.0188 35.4206 21.7993C36.0751 22.584 36.9218 23.2026 37.9258 23.6265C39.5548 24.3121 41.5951 24.4749 43.8967 23.9707C44.4407 23.8553 44.9811 24.1255 45.2247 24.6021ZM27.2213 26.4265C28.3728 26.5374 29.2144 27.5583 29.1035 28.7098C28.9926 29.8614 27.9718 30.7029 26.8202 30.5921C25.6687 30.4812 24.8271 29.4603 24.938 28.3088C25.0489 27.1572 26.0739 26.3161 27.2213 26.4265ZM17.366 34.1334C18.767 34.2683 19.7968 35.5129 19.6615 36.9181C19.5262 38.3232 18.282 39.3488 16.8769 39.2135C15.4717 39.0782 14.4461 37.834 14.5814 36.4289C14.7167 35.0238 15.9609 33.9981 17.366 34.1334ZM24.7079 15.2294C25.8096 15.3355 26.6135 16.3108 26.5075 17.4124C26.4014 18.5141 25.4261 19.3181 24.3244 19.212C23.2228 19.1059 22.4188 18.1306 22.5249 17.029C22.6309 15.9273 23.6104 15.1237 24.7079 15.2294ZM53.192 18.2448C54.0152 18.3241 54.6163 19.0533 54.537 19.8764C54.4577 20.6996 53.7285 21.3007 52.9054 21.2214C52.0823 21.1421 51.4812 20.4129 51.5604 19.5898C51.6351 18.7704 52.3689 18.1656 53.192 18.2448ZM42.8962 13.2717C44.135 13.391 45.0405 14.4893 44.9212 15.7282C44.8019 16.967 43.7035 17.8724 42.4647 17.7532C41.2258 17.6339 40.3204 16.5355 40.4397 15.2967C40.5586 14.062 41.6573 13.1524 42.8962 13.2717ZM45.5232 4.15971C46.8493 4.2874 47.8224 5.4678 47.6947 6.79395C47.567 8.1201 46.3866 9.09314 45.0605 8.96545C43.7343 8.83775 42.7613 7.65736 42.889 6.33121C43.0212 5.0013 44.197 4.03201 45.5232 4.15971ZM33.5642 36.591C35.4058 36.7683 36.7587 38.4049 36.581 40.2507C36.4036 42.0923 34.7671 43.4452 32.9213 43.2675C31.0755 43.0898 29.7268 41.4536 29.9045 39.6078C30.0822 37.762 31.7184 36.4133 33.5642 36.591ZM16.2865 20.7247C18.282 20.9169 19.7434 22.6898 19.5513 24.6852C19.3592 26.6807 17.5863 28.1421 15.5908 27.95C13.5954 27.7578 12.1339 25.985 12.3261 23.9895C12.5178 21.9982 14.2911 20.5326 16.2865 20.7247ZM46.9983 29.5392C45.6254 29.0252 44.4841 27.9797 43.537 26.4871C41.0732 26.8876 38.8411 26.6265 36.986 25.8479C35.627 25.2765 34.4711 24.4267 33.5724 23.3458C32.6737 22.2649 32.0352 20.9657 31.711 19.4953C31.2698 17.4976 31.4168 15.1873 32.2895 12.7035C31.0728 11.8311 30.2883 10.6101 29.936 9.17065C29.6174 7.86027 29.6677 6.3798 30.0967 4.84351C24.3064 4.36569 18.698 6.09556 14.2334 9.36633C9.417 12.8927 5.9349 18.2049 4.98796 24.4661L4.98596 24.4869L4.9766 24.5406C4.0502 30.8499 5.76394 36.9309 9.28131 41.6668C12.7878 46.3848 18.0843 49.7688 24.3542 50.7124L24.375 50.7144L24.4286 50.7238C30.7334 51.6539 36.8185 49.9406 41.5548 46.4191C46.2728 42.9126 49.6569 37.6161 50.6004 31.3462L50.6024 31.3254L50.6118 31.2718C50.6946 30.7175 50.7549 30.1779 50.7933 29.6487C49.4062 30.0228 48.1439 29.9726 46.9983 29.5392Z" fill="#E10512"/>
</g>
<defs>
<clipPath id="clip0_1_202">
<rect width="51.32" height="51.057" fill="white" transform="translate(4.89362) rotate(5.5)"/>
</clipPath>
</defs>
</svg>
